<?xml version="1.0" encoding="UTF-8" standalone="no"?>
<!-- Created with Inkscape (http://www.inkscape.org/) -->

<svg
   xmlns:dc="http://purl.org/dc/elements/1.1/"
   xmlns:cc="http://creativecommons.org/ns#"
   xmlns:rdf="http://www.w3.org/1999/02/22-rdf-syntax-ns#"
   xmlns:svg="http://www.w3.org/2000/svg"
   xmlns="http://www.w3.org/2000/svg"
   xmlns:sodipodi="http://sodipodi.sourceforge.net/DTD/sodipodi-0.dtd"
   xmlns:inkscape="http://www.inkscape.org/namespaces/inkscape"
   width="109.6635mm"
   height="109.66373mm"
   viewBox="0 0 388.57145 388.57229"
   id="svg8281"
   version="1.1"
   inkscape:version="0.91 r13725"
   sodipodi:docname="seinfeld_cookie.svg">
  <defs
     id="defs8283" />
  <sodipodi:namedview
     id="base"
     pagecolor="#ffffff"
     bordercolor="#666666"
     borderopacity="1.0"
     inkscape:pageopacity="0.0"
     inkscape:pageshadow="2"
     inkscape:zoom="0.49497475"
     inkscape:cx="-97.665822"
     inkscape:cy="219.59059"
     inkscape:document-units="px"
     inkscape:current-layer="layer1"
     showgrid="false"
     inkscape:object-paths="true"
     inkscape:snap-intersection-paths="true"
     inkscape:object-nodes="true"
     inkscape:snap-smooth-nodes="true"
     inkscape:snap-midpoints="true"
     inkscape:snap-object-midpoints="true"
     inkscape:snap-bbox="true"
     inkscape:bbox-paths="true"
     inkscape:bbox-nodes="true"
     inkscape:snap-bbox-edge-midpoints="true"
     inkscape:snap-bbox-midpoints="true"
     inkscape:window-width="1366"
     inkscape:window-height="703"
     inkscape:window-x="0"
     inkscape:window-y="0"
     inkscape:window-maximized="1"
     fit-margin-top="0"
     fit-margin-left="0"
     fit-margin-right="0"
     fit-margin-bottom="0" />
  <metadata
     id="metadata8286">
    <rdf:RDF>
      <cc:Work
         rdf:about="">
        <dc:format>image/svg+xml</dc:format>
        <dc:type
           rdf:resource="http://purl.org/dc/dcmitype/StillImage" />
        <dc:title></dc:title>
      </cc:Work>
    </rdf:RDF>
  </metadata>
  <g
     inkscape:label="Layer 1"
     inkscape:groupmode="layer"
     id="layer1"
     transform="translate(-177.76152,-331.89453)">
    <circle
       style="fill:#000000;fill-opacity:1;stroke:none;stroke-width:1;stroke-miterlimit:4;stroke-dasharray:1, 2;stroke-dashoffset:0;stroke-opacity:1"
       id="path8829"
       cx="372.04724"
       cy="526.18109"
       r="194.28572" />
    <circle
       r="184.31139"
       cy="526.18109"
       cx="372.04724"
       id="circle8831"
       style="fill:#ffffff;fill-opacity:1;stroke:none;stroke-width:0.94866151;stroke-miterlimit:4;stroke-dasharray:0.94866153, 1.89732307;stroke-dashoffset:0;stroke-opacity:1" />
    <path
       style="fill:#000000;fill-opacity:1;stroke:none;stroke-width:1;stroke-miterlimit:4;stroke-dasharray:1, 2;stroke-dashoffset:0;stroke-opacity:1"
       d="M 372.04688,331.89453 A 194.28572,194.28572 0 0 0 177.76172,526.18164 194.28572,194.28572 0 0 0 372.04688,720.4668 l 0,-108.14844 c -1.97983,4.27773 -4.39717,6.93231 -7.26758,7.91797 -2.06814,0.71017 -3.79802,0.59992 -5.18946,-0.33203 -1.39143,-0.93196 -2.44217,-2.43187 -3.15234,-4.5 -0.31953,-0.93053 -0.55544,-1.88709 -0.72266,-2.86524 -0.27302,0.46616 -0.58286,0.90431 -0.92968,1.31641 -1.40174,1.66553 -3.03403,2.82005 -4.90039,3.46094 -1.36195,0.46767 -2.66008,0.63091 -3.89258,0.49023 -2.21666,6.68213 -5.16537,10.65547 -8.84766,11.91992 -2.06813,0.71017 -3.79802,0.59992 -5.18945,-0.33203 -1.39143,-0.93195 -2.44218,-2.43187 -3.15235,-4.5 -0.10827,-0.31532 -0.20022,-0.63625 -0.29101,-0.95703 -0.67568,2.3961 -1.66249,4.6672 -2.9668,6.81055 -2.509,4.18857 -5.60287,6.91524 -9.28515,8.17968 -2.52212,0.86606 -4.85102,0.73506 -6.98633,-0.39257 -2.13531,-1.12764 -3.74054,-3.2554 -4.81446,-6.38282 -1.71479,-4.99378 -1.52493,-10.1887 0.56836,-15.58789 2.12642,-5.46695 5.15535,-8.87746 9.08985,-10.22851 1.9168,-0.65821 3.47006,-0.57087 4.6582,0.26172 1.22126,0.76482 2.09976,1.93043 2.63672,3.49414 0.51964,1.51326 0.61809,2.94465 0.29297,4.29687 -0.29201,1.28446 -1.01952,2.127 -2.17969,2.52539 -0.85752,0.29446 -1.71886,0.16597 -2.58398,-0.38281 0.63538,-0.61291 1.02295,-1.61838 1.16211,-3.01953 0.12183,-1.45159 -0.0157,-2.7578 -0.41407,-3.91797 -0.43303,-1.26106 -1.20472,-1.70138 -2.31445,-1.32031 -2.623,0.9007 -4.61043,3.97875 -5.96289,9.23633 -1.35246,5.25757 -1.37917,9.77933 -0.0801,13.5625 1.43766,4.1867 3.9974,5.64726 7.67969,4.38281 3.07698,-1.0566 5.67122,-3.35633 7.78125,-6.90039 1.50035,-2.47322 2.51787,-5.21359 3.07812,-8.20703 -0.15472,-1.91432 -0.0424,-3.91097 0.35547,-5.99805 0.75781,-3.86919 2.19588,-6.16899 4.31446,-6.89649 0.45398,-0.15589 1.02683,-0.21037 1.71875,-0.16601 -0.68127,1.13618 -1.12323,3.544 -1.32618,7.22266 -0.22026,3.62821 -0.0181,6.35009 0.60547,8.16601 0.98731,2.87521 2.38721,4.00052 4.20313,3.37695 2.21946,-0.76213 4.22541,-3.70736 6.01758,-8.83398 -1.81077,-0.67518 -3.43876,-1.80726 -4.88672,-3.39648 -1.39752,-1.60655 -2.44387,-3.41786 -3.13672,-5.43555 -0.9007,-2.623 -1.01437,-5.09344 -0.34375,-7.41016 0.72105,-2.33403 2.21643,-3.89047 4.48633,-4.66992 3.48051,-1.19516 5.88697,0.14915 7.2207,4.0332 1.35105,3.9345 1.2022,9.00424 -0.44531,15.20899 1.08117,0.19264 2.12592,0.11595 3.13476,-0.23047 1.46283,-0.50232 2.83036,-1.45123 4.09961,-2.8457 0.68409,-0.78955 1.20064,-1.68742 1.56055,-2.68555 -0.0427,-1.58603 0.0879,-3.22698 0.41211,-4.92773 0.7578,-3.86919 2.19588,-6.16705 4.31445,-6.89454 0.45398,-0.15589 1.02684,-0.21232 1.71875,-0.16796 -0.68126,1.13617 -1.12323,3.544 -1.32617,7.22265 -0.22026,3.62821 -0.0181,6.3501 0.60547,8.16602 0.98731,2.8752 2.38916,4.00051 4.20508,3.37695 2.21946,-0.76213 4.22346,-3.70542 6.01562,-8.83203 -1.81077,-0.67518 -3.43876,-1.80726 -4.88672,-3.39649 -1.39752,-1.60654 -2.44387,-3.41981 -3.13672,-5.4375 -0.9007,-2.62299 -1.01436,-5.09148 -0.34375,-7.4082 0.72106,-2.33403 2.21643,-3.89242 4.48633,-4.67187 1.79872,-0.61766 3.30785,-0.54944 4.53321,0.18945 l 0,-74.14453 c -0.83349,0.5036 -1.70939,0.9199 -2.63086,1.23633 -4.48936,1.54158 -7.58989,-0.18591 -9.30469,-5.17969 -1.48963,-4.33803 -2.11391,-10.91706 -1.87305,-19.74024 -1.2799,0.21394 -2.25705,0.324 -2.93164,0.33008 l -0.46875,-1.36328 c 1.88521,-0.42179 3.03006,-0.70127 3.43359,-0.83984 0.24485,-6.51255 0.90969,-12.29489 1.99414,-17.34766 1.11758,-5.12053 2.40632,-7.93323 3.86915,-8.43555 0.40353,-0.13857 0.81021,-0.10693 1.21679,0.0918 0.45703,0.18141 0.7721,0.52292 0.94532,1.02734 0.25981,0.75664 0.20585,2.2423 -0.16211,4.45508 -0.31752,2.19547 -0.84784,5.16894 -1.58985,8.91992 -0.69156,3.73367 -1.19247,7.03424 -1.5039,9.9043 l 2.79882,-0.96094 c 2.25786,-0.77531 4.31683,-1.53572 6.20704,-2.2832 l 0,-150.78125 z m 0,150.78125 0,1.72852 c 1.54528,-0.6832 3.1592,-1.41365 4.92382,-2.25196 l -0.46679,-1.36328 c -1.34647,0.61824 -2.84226,1.24816 -4.45703,1.88672 z m 0,1.72852 c -2.95497,1.30645 -5.54828,2.35838 -7.70118,3.09765 l -0.3789,0.13086 -1.13477,0.38867 c -0.60917,7.25795 -0.11699,13.20893 1.47656,17.84961 0.77946,2.2699 1.65161,3.74495 2.61914,4.42774 0.96754,0.68278 2.20939,0.76377 3.72266,0.24414 0.48167,-0.1654 0.94391,-0.38259 1.39649,-0.62695 l 0,-25.51172 z m 0,25.51172 0,2.94531 c 2.31468,-1.39856 4.29166,-3.51333 5.92773,-6.35547 1.15777,-2.05348 2.05559,-4.26343 2.70508,-6.62305 0.11656,0.44802 0.24625,0.89063 0.39648,1.32813 0.71017,2.06813 1.76091,3.56804 3.15235,4.5 1.39143,0.93195 3.12132,1.04415 5.18945,0.33398 3.68228,-1.26445 6.63295,-5.23779 8.84961,-11.91992 1.2325,0.14068 2.52868,-0.0226 3.89062,-0.49023 1.86637,-0.64089 3.50061,-1.79541 4.90235,-3.46094 1.40173,-1.66553 2.20021,-3.77175 2.39648,-6.32031 l -1.16797,-0.44532 c -0.16619,2.14351 -0.87502,3.9379 -2.12695,5.38282 -1.26925,1.39447 -2.63483,2.34338 -4.09766,2.8457 -1.00884,0.34642 -2.05359,0.42311 -3.13476,0.23047 1.64751,-6.20475 1.79636,-11.27449 0.44531,-15.20899 -1.33373,-3.88405 -3.74214,-5.22836 -7.22266,-4.0332 -2.2699,0.77945 -3.76527,2.33589 -4.48632,4.66992 -0.67062,2.31672 -0.555,4.78716 0.3457,7.41016 0.69285,2.01769 1.73725,3.829 3.13476,5.43554 1.44796,1.58923 3.07791,2.72131 4.88868,3.39649 -1.79217,5.12661 -3.79812,8.07185 -6.01758,8.83398 -1.81592,0.62357 -3.21777,-0.50174 -4.20508,-3.37695 -0.62356,-1.81592 -0.82573,-4.53976 -0.60547,-8.16797 0.20294,-3.67865 0.64491,-6.08452 1.32617,-7.2207 -0.69191,-0.0444 -1.26477,0.0101 -1.71875,0.16601 -2.11857,0.72749 -3.55664,3.0273 -4.31445,6.89649 -0.33551,1.75998 -0.46369,3.45467 -0.40625,5.0918 -0.65026,3.37146 -1.63782,6.29424 -2.9707,8.75585 -1.41637,2.5488 -3.11159,4.33962 -5.07617,5.4004 z m 0,77.08984 0,4.05664 c 0.14525,0.32791 0.2871,0.68174 0.42187,1.07422 1.17784,3.43007 1.04931,7.81554 -0.38672,13.1582 -0.0121,-0.007 -0.0231,-0.0162 -0.0351,-0.0234 l 0,7.04688 c 0.55997,-1.20991 1.09135,-2.52868 1.58007,-4.00195 1.2325,0.14067 2.53064,-0.0226 3.89258,-0.49024 1.86636,-0.64088 3.49866,-1.79345 4.90039,-3.45898 0.68712,-0.81643 1.2295,-1.74093 1.62696,-2.76953 0.27888,1.31493 0.60017,2.54292 0.98046,3.65039 0.38107,1.10973 0.70876,1.98462 0.98438,2.62304 0.27562,0.63843 0.6201,1.30901 1.03125,2.01368 0.42846,0.75511 0.87917,1.24862 1.35351,1.48046 0.54211,0.26497 1.1154,0.2938 1.72071,0.0859 l 0.0762,-0.0254 c 1.10973,-0.38107 1.78621,-1.12221 2.0293,-2.2207 0.0331,-0.0678 0.069,-1.60293 0.10937,-4.60547 0.0404,-3.00254 0.15834,-5.94617 0.35156,-8.83203 0.24367,-2.90318 0.94299,-5.79421 2.09766,-8.67188 1.18779,-2.94542 2.81468,-4.77225 4.88281,-5.48242 1.00885,-0.34642 2.00452,-0.32171 2.98633,0.0742 0.96449,0.34549 1.62037,1.02241 1.9668,2.03125 0.53695,1.56371 0.33295,3.18499 -0.61328,4.86328 -0.91311,1.61052 -1.99937,2.88525 -3.25586,3.82422 -1.2565,0.93897 -2.36387,1.57324 -3.32227,1.90234 0.62356,1.81592 1.50135,3.63005 2.63086,5.44141 1.11219,1.76091 2.55763,3.26479 4.33984,4.51367 1.84998,1.28201 3.65835,1.61992 5.42383,1.01367 2.57256,-0.88338 4.67681,-3.21237 6.3125,-6.98828 0.75223,-1.73255 1.30462,-3.50456 1.67578,-5.3125 0.11167,0.46385 0.22588,0.92 0.36133,1.31446 0.64089,1.86636 1.66503,3.20578 3.07227,4.01953 1.42455,0.86419 3.06918,0.97682 4.93554,0.33593 3.02654,-1.03927 5.49452,-3.2134 7.4043,-6.51953 0.80377,-1.36274 1.42946,-2.84935 1.89649,-4.44726 0.90029,2.32838 2.33824,4.00653 4.32617,5.01758 2.18575,1.11031 4.76609,1.15476 7.74219,0.13281 3.78316,-1.29909 6.99847,-3.92522 9.64453,-7.87891 2.64605,-3.95368 4.20553,-8.52091 4.68164,-13.70312 l -1.14063,-0.36914 c -0.66816,4.45869 -2.1251,8.50978 -4.36914,12.15625 -2.24404,3.64647 -4.90349,5.99809 -7.98047,7.05468 -3.98494,1.36838 -6.70517,-0.0656 -8.16015,-4.30273 -0.32911,-0.9584 -0.54012,-1.90132 -0.63282,-2.82813 4.4848,-2.04753 8.20932,-5.15816 11.17383,-9.33398 2.96451,-4.17582 3.81523,-8.10483 2.55078,-11.78711 -1.05659,-3.07698 -3.14992,-4.07977 -6.27734,-3.00586 -4.33803,1.48962 -7.77674,5.43371 -10.31641,11.83203 -2.06717,5.20794 -2.76492,9.83349 -2.09375,13.87696 -1.38803,5.96556 -3.64692,9.49463 -6.78515,10.57226 -1.3115,0.45035 -2.37434,0.47753 -3.1875,0.0801 -0.78004,-0.46522 -1.47384,-1.58023 -2.08008,-3.3457 -0.71017,-2.06814 -0.87615,-4.68905 -0.5,-7.86328 0.35883,-3.22468 0.82198,-6.14822 1.38867,-8.76758 0.56669,-2.61937 0.74496,-4.23063 0.53711,-4.83594 -0.38107,-1.10973 -1.1266,-1.47482 -2.23633,-1.09375 -1.61415,0.55428 -2.82586,2.52178 -3.63867,5.90234 -0.81281,3.38057 -1.17766,6.9184 -1.09375,10.61133 0.0134,0.58989 0.0457,1.12016 0.0742,1.66602 -0.98156,8.365 -3.22417,13.20194 -6.75977,14.41601 -1.21061,0.41571 -2.54514,0.0576 -4.00586,-1.07617 -1.47804,-1.18416 -2.61035,-2.34652 -3.39648,-3.48633 -0.75301,-1.20757 -1.36918,-2.26543 -1.84961,-3.17187 1.21061,-0.41571 2.48612,-1.1361 3.82617,-2.16016 1.37318,-1.09182 2.52183,-2.58504 3.44922,-4.48242 0.96051,-1.96514 1.10326,-3.93119 0.42774,-5.89844 -0.64089,-1.86636 -1.84167,-3.23065 -3.60352,-4.0918 -1.76185,-0.86114 -3.57504,-0.97096 -5.44141,-0.33007 -5.69997,1.95729 -8.92467,10.95937 -9.67383,27.00586 -2.14782,-6.25484 -2.96065,-14.04063 -2.4375,-23.35547 3.43734,-4.11262 5.84793,-8.99947 7.23047,-14.66211 1.38255,-5.66264 1.45026,-10.30957 0.20313,-13.94141 -0.46767,-1.36194 -1.09387,-2.44553 -1.87695,-3.24804 -0.78309,-0.80252 -1.50246,-1.09042 -2.15821,-0.86524 -1.76548,0.60624 -3.46708,4.51774 -5.10547,11.73438 -1.6557,7.16619 -2.64584,15.28832 -2.96875,24.36523 -0.19873,5.58639 -0.0119,10.38167 0.55469,14.40234 -0.28754,1.69739 -0.94891,3.15467 -1.99609,4.36329 -1.26925,1.39447 -2.63679,2.34143 -4.09961,2.84374 -1.00885,0.34643 -2.0536,0.42311 -3.13477,0.23047 1.64751,-6.20474 1.79637,-11.27253 0.44532,-15.20703 -0.64447,-1.87679 -1.54179,-3.15484 -2.6875,-3.8457 z m 0,18.26562 0,-14.20898 c -0.90022,-2.03218 -1.99973,-2.8322 -3.30274,-2.38477 -1.10973,0.38107 -1.90116,1.52737 -2.37305,3.4375 -0.48921,1.8597 -0.37813,3.8225 0.33203,5.89063 1.17193,3.41283 2.95412,5.83403 5.34376,7.26562 z m 85.375,-185.57421 c -0.1982,-0.002 -0.39785,0.0323 -0.59961,0.10156 -2.11858,0.72749 -3.92836,4.81605 -5.42969,12.26758 -1.51866,7.40108 -2.36683,15.36185 -2.54297,23.88086 -3.60691,2.1408 -6.72271,3.66179 -9.3457,4.5625 -2.11858,0.72749 -4.65012,1.31542 -7.59766,1.76367 0.31143,-2.87006 0.81234,-6.17259 1.50391,-9.90625 0.742,-3.75099 1.27232,-6.72446 1.58984,-8.91992 0.36796,-2.21279 0.42193,-3.6965 0.16211,-4.45313 -0.17321,-0.50442 -0.48829,-0.84789 -0.94531,-1.0293 -0.40658,-0.19872 -0.81131,-0.22841 -1.21485,-0.0898 -1.51326,0.51964 -2.80482,3.16182 -3.875,7.92773 -1.03705,4.69815 -1.68705,10.27813 -1.94922,16.74024 -0.57218,0.14009 -1.27173,0.23882 -2.09765,0.29687 -0.84324,0.008 -1.34086,0.0379 -1.49219,0.0899 l 0.46875,1.36133 c 0.11821,0.0158 0.55673,0.0631 1.31641,0.14062 0.75967,0.0775 1.34867,0.0725 1.76953,-0.0156 -0.25058,9.61597 0.36168,16.56787 1.83398,20.85546 1.7148,4.99379 4.81728,6.71933 9.30664,5.17774 2.9761,-1.02195 5.5121,-3.07746 7.60938,-6.16602 2.09727,-3.08856 3.5326,-6.71114 4.30469,-10.86718 0.24706,1.21213 0.5261,2.27368 0.83789,3.18164 0.72749,2.11857 1.63669,3.86315 2.72851,5.23632 1.14227,1.35586 2.16821,1.87819 3.07617,1.56641 0.95841,-0.3291 1.59373,-1.76021 1.90821,-4.29297 0.36491,-2.55008 0.55133,-5.29178 0.55859,-8.22656 0.0577,-2.9521 0.46983,-5.77229 1.23828,-8.46094 0.8189,-2.70597 2.06197,-4.34441 3.72656,-4.91601 1.91681,-0.65821 3.28968,0.2233 4.1211,2.64453 0.43303,1.26105 0.70546,3.36583 0.8164,6.3164 0.16139,2.93326 0.4153,4.90522 0.76172,5.91407 0.485,1.41238 1.32883,2.38981 2.53125,2.93554 1.21975,0.59618 2.66158,0.60871 4.32617,0.0371 2.82477,-0.96998 5.10041,-3.13127 6.82422,-6.48633 0.71602,-1.36094 1.30921,-2.81068 1.79297,-4.33984 0.89278,2.45222 2.36138,4.20698 4.41602,5.25195 2.18575,1.11032 4.76805,1.15477 7.74414,0.13282 3.78317,-1.29909 6.99652,-3.92522 9.64258,-7.87891 2.64605,-3.95369 4.20749,-8.52287 4.68359,-13.70508 l -1.14062,-0.36914 c -0.66816,4.4587 -2.12511,8.51174 -4.36914,12.1582 -2.24404,3.64647 -4.90545,5.9981 -7.98243,7.05469 -3.98493,1.36838 -6.70322,-0.0656 -8.1582,-4.30273 -0.3291,-0.95841 -0.54012,-1.90132 -0.63281,-2.82813 4.48479,-2.04753 8.20932,-5.16012 11.17383,-9.33594 2.9645,-4.17581 3.81327,-8.10482 2.54882,-11.7871 -1.05659,-3.07698 -3.14797,-4.07783 -6.27539,-3.00391 -4.33803,1.48962 -7.77673,5.43371 -10.3164,11.83203 -2.05823,5.18538 -2.75802,9.79324 -2.10157,13.82422 -0.4859,1.94834 -1.1331,3.81169 -1.95312,5.58398 -1.50625,3.16756 -3.117,5.04585 -4.83203,5.63477 -1.51327,0.51964 -2.59766,-0.1789 -3.25586,-2.0957 -0.39839,-1.16018 -0.55414,-3.33493 -0.46484,-6.52344 0.13974,-3.20583 -0.0749,-5.64009 -0.64649,-7.30469 -0.64088,-1.86636 -1.66546,-3.29104 -3.07422,-4.27344 -1.42607,-1.03283 -3.09882,-1.2207 -5.01562,-0.5625 -5.75042,1.97462 -8.62769,10.26497 -8.63086,24.8711 -0.41267,-0.87332 -0.75607,-1.71246 -1.03321,-2.51953 -0.71016,-2.06814 -1.32838,-5.09926 -1.85351,-9.0918 -0.49202,-4.06031 -0.65729,-7.32975 -0.49414,-9.81055 3.40421,-4.04485 5.81833,-9.41362 7.24219,-16.10547 1.47429,-6.70916 1.57083,-11.93133 0.28906,-15.66406 -0.41571,-1.21061 -1.01379,-2.21702 -1.79688,-3.01953 -0.56247,-0.65271 -1.14173,-0.98295 -1.73632,-0.99023 z m 1.27148,6.35156 c 0.13948,0.0367 0.26131,0.20711 0.36523,0.50976 0.74482,2.16902 0.56028,6.06689 -0.55273,11.69336 -1.07989,5.55871 -2.78373,10.204 -5.11133,13.93555 -0.13892,-4.18156 0.11956,-8.35941 0.77344,-12.53125 0.70432,-4.18916 1.47519,-7.44153 2.31445,-9.75977 0.82194,-2.36867 1.51154,-3.64931 2.06641,-3.83984 0.0504,-0.0173 0.098,-0.02 0.14453,-0.008 z m 39.71289,12.15625 c 0.67055,0.0129 1.15629,0.45409 1.45508,1.32422 0.98731,2.8752 0.27401,6.13716 -2.13867,9.78515 -2.36225,3.63067 -5.09153,6.68271 -8.18946,9.15625 -0.22248,-4.09647 0.49023,-8.25882 2.13868,-12.49023 1.63112,-4.28186 3.63116,-6.83044 6.00195,-7.64453 0.26482,-0.0909 0.5089,-0.13517 0.73242,-0.13086 z m -49.6875,20.07031 c 0.0146,3.49117 0.25882,7.07352 0.73047,10.74609 -0.58155,4.71091 -1.7356,8.6593 -3.46094,11.84571 -1.74266,3.13596 -3.9001,5.14591 -6.47266,6.02929 -1.51326,0.51964 -2.75317,0.43865 -3.7207,-0.24414 -0.98485,-0.73322 -1.85089,-2.1845 -2.5957,-4.35351 -1.59355,-4.64069 -2.09381,-10.61544 -1.50195,-17.92383 3.26751,-0.50173 5.95955,-1.11626 8.07812,-1.84375 3.2283,-1.10856 6.20976,-2.52772 8.94336,-4.25586 z m -135.0957,10.79688 c 0.51568,0.0238 1.06698,0.33561 1.65429,0.9375 0.78309,0.80251 1.40928,1.88415 1.87696,3.24609 1.24712,3.63184 1.17941,8.28072 -0.20313,13.94336 -1.38254,5.66264 -3.79314,10.54949 -7.23047,14.66211 -0.52315,9.31484 0.28967,17.10063 2.4375,23.35547 0.74916,-16.04649 3.97386,-25.04857 9.67383,-27.00586 1.86636,-0.64089 3.67956,-0.53107 5.44141,0.33008 1.76185,0.86114 2.96263,2.22348 3.60351,4.08984 0.67553,1.96725 0.53473,3.93525 -0.42578,5.90039 -0.92739,1.89738 -2.07799,3.3906 -3.45117,4.48242 -1.34006,1.02406 -2.61556,1.74445 -3.82617,2.16016 0.48043,0.90644 1.0966,1.9643 1.84961,3.17187 0.78612,1.13981 1.91844,2.30021 3.39648,3.48438 1.46072,1.13372 2.7972,1.49383 4.00781,1.07812 3.78317,-1.29909 6.10397,-6.69315 6.96289,-16.17968 l 1.01563,0.49804 c 0.20668,4.21468 -0.52455,8.24422 -2.19336,12.08789 -1.63569,3.77591 -3.73994,6.1049 -6.3125,6.98828 -1.76548,0.60625 -3.5719,0.26834 -5.42187,-1.01367 -1.78222,-1.24888 -3.22962,-2.75471 -4.3418,-4.51562 -1.12951,-1.81136 -2.0073,-3.62353 -2.63086,-5.43946 0.9584,-0.3291 2.06577,-0.96337 3.32226,-1.90234 1.2565,-0.93897 2.34275,-2.2137 3.25586,-3.82422 0.94624,-1.67828 1.15024,-3.29957 0.61329,-4.86328 -0.34643,-1.00884 -1.00231,-1.68576 -1.9668,-2.03125 -0.98181,-0.39593 -1.97748,-0.42064 -2.98633,-0.0742 -2.06813,0.71017 -3.69502,2.537 -4.88281,5.48242 -1.15467,2.87767 -1.85399,5.7687 -2.09766,8.67188 -0.19323,2.88586 -0.30923,5.82949 -0.34961,8.83203 -0.0404,3.00254 -0.0782,4.53771 -0.11133,4.60547 -0.24308,1.09849 -0.91956,1.83964 -2.02929,2.2207 l -0.0762,0.0254 c -0.60531,0.20786 -1.1786,0.17903 -1.72071,-0.0859 -0.47434,-0.23184 -0.92505,-0.72535 -1.35351,-1.48046 -0.41115,-0.70467 -0.75564,-1.37525 -1.03125,-2.01368 -0.27562,-0.63842 -0.60331,-1.51331 -0.98438,-2.62304 -0.38029,-1.10747 -0.70158,-2.33546 -0.98047,-3.65039 -0.39746,1.0286 -0.93788,1.9531 -1.625,2.76953 -1.40173,1.66553 -3.03598,2.8181 -4.90234,3.45898 -1.36194,0.46767 -2.66008,0.63091 -3.89258,0.49024 -2.21665,6.68213 -5.16537,10.65547 -8.84765,11.91992 -2.06814,0.71017 -3.79803,0.59992 -5.18946,-0.33203 -1.39143,-0.93196 -2.44217,-2.43187 -3.15234,-4.5 -0.31968,-0.93095 -0.55543,-1.88858 -0.72266,-2.86719 -0.27303,0.46617 -0.5809,0.90625 -0.92773,1.31836 -1.40174,1.66553 -3.03598,2.82005 -4.90235,3.46094 -1.36194,0.46767 -2.66008,0.63091 -3.89257,0.49023 -2.21666,6.68213 -5.16538,10.65548 -8.84766,11.91992 -2.06813,0.71017 -3.79802,0.59797 -5.18945,-0.33398 -1.39144,-0.93195 -2.44218,-2.43187 -3.15235,-4.5 -1.10855,-3.22831 -1.30085,-6.74155 -0.57617,-10.54297 0.75781,-3.86919 2.19588,-6.16899 4.31445,-6.89648 0.45398,-0.1559 1.02684,-0.21038 1.71875,-0.16602 -0.68126,1.13618 -1.12323,3.54205 -1.32617,7.2207 -0.22026,3.62822 -0.0181,6.35205 0.60547,8.16797 0.98731,2.87521 2.38916,4.00052 4.20508,3.37695 2.21946,-0.76213 4.22541,-3.70736 6.01758,-8.83398 -1.81077,-0.67518 -3.44071,-1.80726 -4.88868,-3.39648 -1.39751,-1.60655 -2.44387,-3.41786 -3.13671,-5.43555 -0.90071,-2.623 -1.01437,-5.09344 -0.34375,-7.41016 0.72105,-2.33403 2.21642,-3.89046 4.48632,-4.66992 3.48052,-1.19516 5.88697,0.14915 7.22071,4.0332 1.35105,3.9345 1.2022,9.00424 -0.44531,15.20899 1.08117,0.19264 2.12787,0.11595 3.13671,-0.23047 1.46283,-0.50231 2.82841,-1.45123 4.09766,-2.8457 0.68448,-0.79 1.20062,-1.68868 1.56055,-2.6875 -0.0427,-1.58578 0.0879,-3.22533 0.41211,-4.92578 0.7578,-3.86919 2.19587,-6.16705 4.31445,-6.89454 0.45398,-0.15589 1.02684,-0.21232 1.71875,-0.16796 -0.68126,1.13617 -1.12323,3.544 -1.32617,7.22265 -0.22027,3.62821 -0.0181,6.3501 0.60547,8.16602 0.9873,2.87521 2.38915,4.00051 4.20507,3.37695 2.21946,-0.76213 4.22542,-3.70542 6.01758,-8.83203 -1.81077,-0.67518 -3.44071,-1.80726 -4.88867,-3.39648 -1.39752,-1.60655 -2.44387,-3.41982 -3.13672,-5.4375 -0.9007,-2.623 -1.01436,-5.09345 -0.34375,-7.41016 0.72106,-2.33404 2.21643,-3.89047 4.48633,-4.66992 3.48052,-1.19517 5.88697,0.14915 7.2207,4.0332 1.35106,3.9345 1.2022,9.00424 -0.44531,15.20898 1.08117,0.19265 2.12787,0.11596 3.13672,-0.23046 1.46282,-0.50232 2.82841,-1.45123 4.09766,-2.84571 1.04718,-1.20861 1.70855,-2.66394 1.99609,-4.36133 -0.56655,-4.02067 -0.75342,-8.8179 -0.55469,-14.40429 0.32291,-9.07691 1.31305,-17.19709 2.96875,-24.36328 1.63838,-7.21664 3.33999,-11.12814 5.10547,-11.73438 0.16394,-0.0563 0.33201,-0.0802 0.50391,-0.0723 z m 80.3164,5.29687 c 1.26469,-0.0889 2.32119,1.10255 3.16993,3.57422 1.17784,3.43007 1.04735,7.81749 -0.38868,13.16016 -2.40788,-1.42877 -4.19911,-3.85899 -5.37695,-7.28907 -0.71017,-2.06813 -0.82124,-4.03288 -0.33203,-5.89257 0.47189,-1.91014 1.26332,-3.05449 2.37305,-3.43555 0.18915,-0.065 0.37401,-0.10449 0.55468,-0.11719 z m -79.16992,1.05859 c -0.75663,0.25982 -1.62862,2.73129 -2.61523,7.41211 -1.00394,4.63039 -1.73329,9.81414 -2.1875,15.55274 2.37804,-3.74888 4.03692,-7.87038 4.97461,-12.36524 0.92036,-4.5453 1.01655,-7.87752 0.28906,-9.99609 -0.15589,-0.45398 -0.30961,-0.65548 -0.46094,-0.60352 z m -83.81641,21.93165 c 0.94884,0.0125 1.90466,0.19162 2.86915,0.5371 1.92897,0.69098 3.36153,2.39722 4.29687,5.1211 0.62356,1.81592 0.89361,3.83739 0.8125,6.06445 -0.0811,2.22707 -0.51587,4.49206 -1.30469,6.79297 -0.80614,2.25047 -2.21934,4.37169 -4.24218,6.36328 -1.98972,1.92383 -4.47313,3.39602 -7.44922,4.41797 l -1.21094,0.41602 c 0.14664,14.38551 -0.50521,24.30866 -1.95703,29.76953 0.50594,-0.005 1.76112,-0.0407 3.76758,-0.10938 l 4.09765,-0.13867 c 0.67459,-0.006 1.86413,-0.0756 3.56641,-0.20898 1.70228,-0.13342 3.00653,-0.27289 3.91601,-0.41602 0.92681,-0.0927 1.97112,-0.25268 3.13282,-0.48242 1.21213,-0.24706 2.27368,-0.52611 3.18164,-0.83789 2.01769,-0.69285 3.66851,-1.71261 4.95508,-3.05664 -0.041,4.80722 -1.95316,7.86106 -5.73633,9.16015 -1.3115,0.45035 -2.99584,0.71867 -5.05274,0.80469 -1.98913,0.11914 -3.61524,0.14127 -4.88086,0.0684 -1.21517,-0.0902 -3.37595,-0.30541 -6.48242,-0.64844 -3.08915,-0.29259 -4.97996,-0.4615 -5.67187,-0.50586 -1.65149,3.89412 -3.93959,6.34303 -6.86524,7.34766 -2.2699,0.77945 -4.33691,0.67093 -6.20117,-0.32422 -1.9147,-0.97783 -3.12464,-2.19733 -3.62695,-3.66016 -0.76214,-2.21945 0.69857,-3.96211 4.38086,-5.22656 2.21946,-0.76213 5.50288,-1.29638 9.85156,-1.60547 0.3552,-1.75728 0.58803,-3.95186 0.69922,-6.58398 0.11118,-2.63213 0.15974,-4.79204 0.14453,-6.47852 0.0179,-1.75424 -0.0242,-4.58797 -0.12695,-8.5 l -0.16993,-7.63867 c -2.58016,0.0401 -4.80176,-0.43649 -6.66601,-1.43164 -1.81381,-1.01247 -3.01655,-2.37676 -3.60547,-4.0918 -0.50231,-1.46282 -0.53972,-2.97182 -0.11523,-4.52734 0.47493,-1.57284 1.39196,-2.59287 2.7539,-3.06055 -0.34397,1.13314 -0.13518,2.80984 0.62695,5.0293 1.24713,3.63184 3.57807,5.7361 6.99024,6.3125 -0.0508,-3.7607 0.012,-7.02532 0.18945,-9.79297 0.17743,-2.76765 0.53241,-5.51217 1.06446,-8.23242 0.58248,-2.73757 1.4815,-4.96328 2.69726,-6.67774 1.21577,-1.71445 2.73096,-2.88424 4.54688,-3.50781 0.93318,-0.32044 1.87538,-0.47346 2.82421,-0.46093 z m -0.37109,1.99804 c -0.39461,-0.0407 -0.81946,0.0179 -1.27344,0.17383 -1.10973,0.38107 -2.01149,1.28205 -2.70703,2.70508 -0.69554,1.42303 -1.16692,3.5018 -1.41211,6.23633 -0.26251,2.68408 -0.41642,5.18962 -0.46289,7.51757 -0.0465,2.32795 -0.0602,5.49118 -0.041,9.48829 4.11894,-1.47079 6.89643,-4.79279 8.33398,-9.9668 1.43755,-5.17402 1.54231,-9.55141 0.3125,-13.13281 -0.64954,-1.89159 -1.56616,-2.89935 -2.75,-3.02149 z m 60.79688,10.22852 c -0.18067,0.0127 -0.36553,0.0522 -0.55469,0.11718 -1.10973,0.38107 -1.89921,1.52737 -2.3711,3.4375 -0.4892,1.8597 -0.38009,3.8225 0.33008,5.89063 1.17784,3.43007 2.97102,5.86029 5.37891,7.28906 1.43603,-5.34266 1.56456,-9.73008 0.38672,-13.16015 -0.84874,-2.47167 -1.90524,-3.66311 -3.16992,-3.57422 z m -27.63477,9.49023 c -0.18067,0.0127 -0.36553,0.0522 -0.55469,0.11719 -1.10973,0.38107 -1.90116,1.52541 -2.37304,3.43555 -0.48921,1.85969 -0.37814,3.82444 0.33203,5.89257 1.17784,3.43008 2.97102,5.8603 5.3789,7.28907 1.43603,-5.34267 1.56456,-9.73009 0.38672,-13.16016 -0.84874,-2.47167 -1.90523,-3.66311 -3.16992,-3.57422 z m 205.11524,1.84961 c -0.10216,0.0104 -0.20381,0.0337 -0.30469,0.0684 -0.65575,0.22518 -1.24129,0.90441 -1.75391,2.03906 -0.52994,1.08422 -0.97774,2.73253 -1.3457,4.94532 l -0.98047,6.25781 c -0.23548,1.94173 -0.44806,4.6082 -0.63672,8 l -0.43359,8.09961 -0.32618,8.65625 c -0.29739,8.16591 -0.0387,13.4339 0.7754,15.80469 1.46914,-5.41043 3.13605,-15.00554 5.00195,-28.78516 1.89902,-13.84739 2.50144,-21.77919 1.80859,-23.79688 -0.17321,-0.50442 -0.46256,-0.85596 -0.86914,-1.05468 -0.31792,-0.18688 -0.62907,-0.26561 -0.93554,-0.23438 z m -44.14649,32.45117 c -0.34459,0.0126 -0.72643,0.0915 -1.14258,0.23438 -1.26105,0.43303 -2.35754,1.26159 -3.29101,2.48437 -0.93348,1.22279 -1.22729,2.33686 -0.88086,3.34571 0.5716,1.66459 1.89085,2.14181 3.95898,1.43164 1.21062,-0.41571 2.17429,-1.2238 2.88867,-2.42774 0.74751,-1.2717 0.94799,-2.41303 0.60157,-3.42187 -0.38973,-1.13495 -1.101,-1.68427 -2.13477,-1.64649 z m -32.02344,1.02735 c 0.15133,-0.052 0.30505,0.14758 0.46094,0.60156 0.72749,2.11857 0.63131,5.45079 -0.28906,9.99609 -0.93769,4.49486 -2.59657,8.61636 -4.97461,12.36524 0.45422,-5.7386 1.18357,-10.92235 2.1875,-15.55274 0.98661,-4.68083 1.8586,-7.15034 2.61523,-7.41015 z m -177.40039,5.75586 c -2.77027,-3.1e-4 -4.91251,0.25966 -6.42578,0.77929 -1.66459,0.5716 -2.33105,1.33652 -2.00195,2.29493 0.3291,0.9584 1.18778,1.73542 2.57617,2.33007 1.38839,0.59466 2.78879,0.64906 4.20117,0.16407 2.11858,-0.72749 3.66216,-2.55389 4.63086,-5.48047 -1.06309,-0.0579 -2.05704,-0.0878 -2.98047,-0.0879 z m 233.06055,0.96679 c 0.67055,0.0129 1.15433,0.45409 1.45312,1.32422 0.98731,2.87521 0.27402,6.13717 -2.13867,9.78516 -2.36224,3.63067 -5.09152,6.68271 -8.18945,9.15625 -0.22248,-4.09647 0.49023,-8.26078 2.13867,-12.49219 1.63113,-4.28185 3.63312,-6.83043 6.00391,-7.64453 0.26482,-0.0909 0.5089,-0.13322 0.73242,-0.12891 z m 17.3457,16.97071 c -0.27189,0.009 -0.57251,0.069 -0.90039,0.18164 -1.00884,0.34642 -1.88005,1.01319 -2.61328,1.99804 -0.75055,0.93441 -0.98612,1.80426 -0.70898,2.61133 0.46767,1.36194 1.50694,1.76522 3.12109,1.21094 0.9584,-0.3291 1.72058,-0.98347 2.28516,-1.9668 0.5977,-1.05109 0.76763,-1.95625 0.50781,-2.71289 -0.31178,-0.90796 -0.87574,-1.3486 -1.69141,-1.32226 z m -124.03125,19.95312 c -0.18067,0.0127 -0.36553,0.0522 -0.55468,0.11719 -1.10973,0.38107 -1.90116,1.52737 -2.37305,3.4375 -0.48921,1.85969 -0.37814,3.82249 0.33203,5.89062 1.17784,3.43008 2.97102,5.8603 5.37891,7.28907 1.43602,-5.34267 1.56456,-9.73009 0.38671,-13.16016 -0.84873,-2.47167 -1.90523,-3.66311 -3.16992,-3.57422 z"
       id="circle8835"
       inkscape:connector-curvature="0" />
  </g>
</svg>
