<?xml version="1.0" encoding="UTF-8" standalone="no"?>
<!-- Created with Inkscape (http://www.inkscape.org/) -->

<svg
   xmlns:dc="http://purl.org/dc/elements/1.1/"
   xmlns:cc="http://creativecommons.org/ns#"
   xmlns:rdf="http://www.w3.org/1999/02/22-rdf-syntax-ns#"
   xmlns:svg="http://www.w3.org/2000/svg"
   xmlns="http://www.w3.org/2000/svg"
   xmlns:xlink="http://www.w3.org/1999/xlink"
   xmlns:sodipodi="http://sodipodi.sourceforge.net/DTD/sodipodi-0.dtd"
   xmlns:inkscape="http://www.inkscape.org/namespaces/inkscape"
   width="86"
   height="86"
   id="svg2"
   version="1.1"
   inkscape:version="0.91 r13725"
   sodipodi:docname="harbour-defender.svg"
   inkscape:export-filename="/home/james/Technic/code/Sailfish/harbour-defender/icons/256x256/harbour-defender.png"
   inkscape:export-xdpi="267.91"
   inkscape:export-ydpi="267.91">
  <defs
     id="defs4">
    <linearGradient
       id="linearGradient4167">
      <stop
         id="stop4169"
         offset="0"
         style="stop-color:#ffce21;stop-opacity:1" />
      <stop
         id="stop4171"
         offset="1"
         style="stop-color:#e9a520;stop-opacity:1" />
    </linearGradient>
    <linearGradient
       id="linearGradient4582">
      <stop
         id="stop4584"
         offset="0"
         style="stop-color:#737373;stop-opacity:1" />
      <stop
         id="stop4586"
         offset="1"
         style="stop-color:#bebebe;stop-opacity:1" />
    </linearGradient>
    <linearGradient
       id="linearGradient3789-6">
      <stop
         style="stop-color:#aa095d;stop-opacity:1"
         offset="0"
         id="stop3791-0" />
      <stop
         style="stop-color:#e90b4d;stop-opacity:1"
         offset="1"
         id="stop3793-4" />
    </linearGradient>
    <linearGradient
       inkscape:collect="always"
       xlink:href="#linearGradient3789-6"
       id="linearGradient3889"
       gradientUnits="userSpaceOnUse"
       gradientTransform="matrix(-0.73889635,0,0,-0.7388877,74.772174,78.772171)"
       x1="85.999001"
       y1="86"
       x2="11.999863"
       y2="13" />
    <linearGradient
       inkscape:collect="always"
       xlink:href="#linearGradient4582"
       id="linearGradient4580"
       gradientUnits="userSpaceOnUse"
       gradientTransform="matrix(-1.0000117,0,0,-1,86.000004,90)"
       x1="85.999001"
       y1="86"
       x2="11.999863"
       y2="13" />
    <linearGradient
       inkscape:collect="always"
       xlink:href="#linearGradient4167"
       id="linearGradient4165"
       gradientUnits="userSpaceOnUse"
       gradientTransform="matrix(-0.80329992,0,0,-0.80329052,77.541495,81.541492)"
       x1="85.999001"
       y1="86"
       x2="11.999863"
       y2="13" />
  </defs>
  <sodipodi:namedview
     id="base"
     pagecolor="#ffffff"
     bordercolor="#666666"
     borderopacity="1.0"
     inkscape:pageopacity="0.0"
     inkscape:pageshadow="2"
     inkscape:zoom="0.99999999"
     inkscape:cx="-256.53853"
     inkscape:cy="17.863862"
     inkscape:document-units="px"
     inkscape:current-layer="layer2"
     showgrid="true"
     inkscape:window-width="1366"
     inkscape:window-height="703"
     inkscape:window-x="0"
     inkscape:window-y="0"
     inkscape:window-maximized="1"
     inkscape:snap-bbox="true"
     inkscape:snap-global="true">
    <inkscape:grid
       type="xygrid"
       id="grid2985"
       empspacing="5"
       visible="true"
       enabled="true"
       snapvisiblegridlinesonly="true" />
  </sodipodi:namedview>
  <metadata
     id="metadata7">
    <rdf:RDF>
      <cc:Work
         rdf:about="">
        <dc:format>image/svg+xml</dc:format>
        <dc:type
           rdf:resource="http://purl.org/dc/dcmitype/StillImage" />
        <dc:title></dc:title>
      </cc:Work>
    </rdf:RDF>
  </metadata>
  <g
     inkscape:groupmode="layer"
     id="layer2"
     inkscape:label="Ebene"
     style="display:inline"
     transform="translate(0,-4)">
    <path
       d="M 42.9995,89.700001 C 66.582777,89.700001 85.7,70.582 85.7,47 c 0,-0.408001 0,-41.2770005 0,-41.2770005 0,-0.786 -0.637007,-1.423 -1.423017,-1.423 l -82.5539665,0 c -0.78600898,0 -1.42301598,0.637 -1.42301598,1.423 0,0 0,40.9080005 0,41.2770005 -0.001,23.582 19.11622448,42.700001 42.69949948,42.700001 z"
       id="path4578"
       style="fill:url(#linearGradient4580);fill-opacity:1"
       inkscape:connector-curvature="0" />
    <path
       d="m 42.999598,81.300505 c 18.944222,0 34.300906,-15.357309 34.300906,-34.300505 0,-0.327743 0,-33.157423 0,-33.157423 0,-0.631386 -0.511701,-1.143082 -1.143096,-1.143082 l -66.3148171,0 c -0.6313936,0 -1.1430959,0.511696 -1.1430959,1.143082 0,0 0,32.861008 0,33.157423 -8.031e-4,18.943196 15.355881,34.300505 34.300103,34.300505 z"
       id="path4163"
       style="fill:url(#linearGradient4165);fill-opacity:1"
       inkscape:connector-curvature="0" />
    <path
       inkscape:connector-curvature="0"
       style="fill:url(#linearGradient3889);fill-opacity:1"
       id="path11"
       d="m 42.999631,78.550505 c 17.425392,0 31.550873,-14.126056 31.550873,-31.550505 0,-0.301466 0,-30.499068 0,-30.499068 0,-0.580766 -0.470676,-1.051437 -1.05145,-1.051437 l -60.998109,0 c -0.580773,0 -1.05145,0.470671 -1.05145,1.051437 0,0 0,30.226418 0,30.499068 -7.39e-4,17.424449 14.124743,31.550505 31.550136,31.550505 z" />
    <path
       d="m 44.348861,64.072995 c -0.690219,0.163711 -1.504662,0.355393 -2.056673,0.493602 -0.66883,0.04278 -1.33437,0.08227 -1.974406,-0.164535 -0.530622,-0.288757 -1.277606,-0.579981 -1.974406,-0.658135 -0.895065,-0.347166 -1.738301,-0.807038 -2.468008,-1.480804 -1.13117,-0.64086 -1.52852,-1.873218 -2.221207,-2.879343 -0.860512,-1.102376 -1.54415,-2.310055 -2.426875,-3.414077 -0.385831,-0.514169 -0.964498,-1.563894 -1.768739,-2.755942 -0.690302,-1.008593 -1.545631,-2.814352 -1.768739,-3.496345 -0.193492,-0.421206 -0.700091,-1.65521 -1.028336,-2.426874 -0.348565,-0.695156 -0.920567,-1.748995 -1.316271,-2.385741 -0.362222,-0.58245 -0.329068,-2.063255 -0.329068,-2.632542 0.09601,-0.753565 0.717944,-0.757678 0.863803,-0.781535 0.445064,-0.07075 1.527943,-0.204022 1.933272,0.1234 1.374516,0.436015 1.993246,1.330256 2.632543,2.632541 0.208957,0.418739 0.574223,1.726783 0.904936,2.056674 1.136928,1.080987 1.600091,1.999909 2.01554,2.591408 0.278062,0.48373 0.869561,0.846527 1.275137,0.94607 0.411335,0.192504 0.798812,-0.488666 0.987203,-0.699269 0.464808,-0.518282 0.567642,-1.076051 0.575868,-1.727606 0.0049,-0.380896 0.02797,-1.006124 0.08227,-1.439671 0.106124,-0.841591 0.06417,-1.429799 0.08227,-2.01554 0.02139,-0.674589 -0.411334,-1.517002 -0.411334,-2.344607 -0.171116,-0.624406 -0.101188,-2.023766 -0.08227,-2.550275 0.02797,-0.786472 -0.08227,-2.10192 -0.123401,-2.714809 -0.03784,-0.565996 -0.343053,-1.965356 -0.370201,-2.714808 -0.03126,-0.868739 -0.301919,-2.388209 -0.329067,-3.290677 -0.01728,-0.563528 0.07569,-1.550567 0.1234,-2.056508 0.05018,-0.531856 0.08638,-1.464105 0.08227,-2.097807 -0.0025,-0.391426 0.275594,-1.019534 0.658136,-1.316271 0.547897,-0.589113 1.650274,-0.943684 2.344607,-0.411335 0.930439,0.67352 0.837477,1.332231 1.028336,1.727606 0.297807,0.615274 0.219653,1.384882 0.287934,2.01554 0.05183,0.650896 0.117642,1.27851 0,2.344442 0,0.468922 0.04442,1.485741 0.08227,2.097807 0.04113,0.664717 0.241865,1.983455 0.329068,2.468008 0.130805,0.725594 0.287934,2.007313 0.246801,2.673675 -0.0543,0.881901 0.177697,1.834552 0.246801,2.426874 0.0724,0.623584 0.559415,1.559781 0.987203,1.933273 0.329068,0.287111 0.946069,-0.433547 0.946069,-1.398538 -0.08473,-1.403473 0.208958,-2.992048 0.164534,-3.578611 -0.03949,-0.52075 0.04113,-1.123766 0.04113,-1.234004 -0.06664,-0.265722 0,-0.547898 0,-0.822669 0,-0.595613 -0.217185,-1.359873 -0.164534,-2.138941 0.03208,-0.478793 -0.04854,-1.778611 -0.08227,-2.468007 0,-1.79202 -0.04607,-0.81691 -0.04113,-1.604041 0.0033,-0.520667 0.156307,-1.571462 0.2468,-1.933272 0.02632,-0.842331 0.24351,-1.724315 0.411335,-2.303474 0.267367,-0.741307 0.951006,-1.833894 1.933273,-1.892139 1.363163,0.06573 1.670841,0.618976 1.727605,1.439671 0.02221,0.322075 0.109415,1.343748 0.164534,1.645338 0.02139,0.450412 0.09543,1.49331 0.1234,2.056673 0.03373,0.67533 0.207312,1.667386 0.246801,2.262177 0.02304,0.34552 -0.117642,1.304752 -0.08227,1.974406 -0.156308,0.682815 0.04113,1.66755 0.04113,2.426874 l 0,2.344607 c 0,1.01106 -0.257495,1.872395 -0.08227,2.714809 0.07322,0.35457 0.158775,1.376326 0.534735,1.439671 0.629342,0.106947 1.261152,-1.005302 1.439671,-2.838209 0.109415,-1.166545 0.329068,-2.342962 0.329068,-3.290677 -0.134918,-0.538848 0.347166,-2.203931 0.493602,-2.755942 0.231992,-0.87532 0.349634,-1.891317 0.575868,-2.550275 -0.105302,-1.028007 0.270658,-2.06819 0.411335,-3.084845 0.205667,-0.751755 0.433546,-1.585448 0.987203,-1.809872 0.534735,-0.470073 1.137751,-0.274196 1.480804,-0.123401 0.575869,0.431984 0.787295,1.048492 0.94607,1.686472 0.130805,0.525933 -0.01398,1.45341 -0.08227,1.933273 8.22e-4,0.660521 0.05018,1.467478 0,2.221043 -0.04936,0.741224 -0.246801,1.627239 -0.246801,2.221206 0.009,0.821024 -0.1234,2.079708 -0.1234,3.043877 -0.183455,1.210969 -0.246801,2.379982 -0.493602,3.578611 -0.169469,0.797989 -0.611243,1.911883 -0.617001,2.797075 0,0.762615 -0.378428,1.753109 0.617001,1.89214 0.575869,0.688574 1.345064,-1.424041 1.686472,-2.056673 0.395704,-0.939489 0.939489,-2.384919 1.151738,-3.043877 0.23446,-0.637568 0.756855,-1.532633 0.946069,-2.13894 0.495247,-0.991316 0.713254,-1.841956 0.904936,-2.509141 0.3266,-0.652377 0.947715,-1.203565 1.398538,-1.275138 0.603016,-0.09543 1.098263,0.402286 1.480804,0.987204 0.247624,0.65649 -0.0329,1.670841 -0.164533,2.632542 -0.250914,1.247988 -0.574224,2.352011 -0.858045,3.069378 -0.204021,0.514169 -0.719012,1.644516 -0.951828,2.322396 -0.275594,0.666361 -0.593967,1.555667 -0.856399,2.046801 -0.288757,0.538848 -0.813619,1.306399 -0.994606,2.022121 -0.258318,1.034095 -0.287935,1.917642 -0.287935,2.714808 0,0.510879 -0.164533,0.966637 -0.164533,1.64534 0.06334,0.843235 -0.266545,1.626416 -0.164535,2.468007 0.05347,0.213071 0.04114,0.85064 -0.04113,1.398538 0.06746,0.805393 -0.320018,1.855941 -0.452468,2.385741 -0.159598,0.637568 -0.575869,2.067368 -0.575869,2.344607 -0.737111,1.351646 -0.809506,2.318282 -1.275137,2.961609 -0.398995,0.510055 -0.807861,1.253748 -1.275137,1.604205 -0.38501,0.288757 -0.798812,0.646619 -1.151738,0.822669 -0.658957,0.361153 -1.398537,0.720659 -2.550274,0.82267 -0.790585,-0.07157 -1.70128,-0.42532 -2.221207,-0.493601 -0.783181,-0.368556 -1.697167,-0.611244 -2.550275,-0.658136 z"
       inkscape:connector-curvature="0"
       style="display:inline;fill:#333333;fill-rule:evenodd;stroke:#000000;stroke-width:0.08226693px"
       id="pathContourMain" />
  </g>
</svg>
